<?xml version="1.0" standalone="no"?>
<!DOCTYPE svg PUBLIC "-//W3C//DTD SVG 20010904//EN"
 "http://www.w3.org/TR/2001/REC-SVG-20010904/DTD/svg10.dtd">
<svg version="1.0" xmlns="http://www.w3.org/2000/svg"
 width="800.000000pt" height="800.000000pt" viewBox="0 0 800.000000 800.000000"
 preserveAspectRatio="xMidYMid meet">

<g transform="translate(0.000000,800.000000) scale(0.100000,-0.100000)"
fill="#000000" stroke="none">
<path d="M1563 7040 c-230 -60 -402 -223 -481 -455 l-27 -80 0 -975 0 -975 23
-75 c87 -279 325 -469 609 -487 l92 -6 3 -274 3 -275 33 -29 c34 -31 85 -39
122 -19 10 5 170 142 356 305 l339 295 232 0 232 0 3 -942 3 -943 27 -80 c80
-234 252 -396 485 -456 73 -18 117 -19 918 -19 l842 0 333 -290 c183 -160 342
-297 353 -305 12 -8 41 -15 65 -15 35 0 49 6 73 29 l29 29 0 276 0 276 73 0
c97 0 185 22 287 72 120 59 239 178 298 299 75 152 73 111 70 1192 l-3 962
-27 80 c-58 170 -182 312 -343 391 -151 75 -138 74 -952 74 l-723 0 0 923 c0
1033 2 996 -72 1146 -59 121 -178 240 -298 299 -156 76 -57 72 -1560 71 -1284
0 -1348 -1 -1417 -19z m2788 -216 c170 -51 294 -181 328 -347 8 -35 10 -338 9
-952 l-3 -900 -520 -5 c-454 -5 -526 -8 -570 -23 -39 -13 -52 -14 -61 -4 -71
80 -136 171 -128 182 5 7 28 36 52 66 47 57 83 122 115 209 20 52 21 79 25
449 3 337 1 405 -13 468 -50 225 -227 408 -453 469 -77 21 -221 20 -302 -1
-207 -54 -381 -225 -447 -440 -16 -54 -18 -100 -18 -465 l0 -405 28 -80 c71
-201 218 -346 412 -408 94 -30 251 -31 344 -3 l63 20 29 -35 c16 -19 49 -59
74 -90 l45 -57 -34 -26 c-40 -30 -120 -134 -149 -193 l-21 -43 -295 0 c-272 0
-298 -2 -326 -19 -16 -10 -141 -116 -277 -235 -136 -119 -250 -216 -254 -216
-3 0 -4 84 -2 188 5 273 -2 282 -199 282 -189 0 -291 36 -395 141 -68 68 -112
154 -127 249 -14 87 -15 1761 -1 1850 27 174 164 329 330 374 47 13 245 15
1371 15 1182 1 1321 -1 1370 -15z m-1211 -630 c112 -51 191 -163 211 -297 12
-86 11 -658 -2 -737 -30 -186 -159 -308 -339 -318 -89 -5 -166 14 -234 59 -60
40 -92 80 -130 159 l-31 65 0 410 0 410 32 67 c51 107 146 185 257 208 66 14
174 3 236 -26z m3249 -1809 c162 -38 293 -168 336 -330 23 -89 23 -1851 0
-1940 -30 -115 -94 -206 -189 -267 -93 -60 -166 -78 -313 -78 -133 0 -171 -10
-195 -53 -9 -15 -15 -86 -18 -221 l-5 -199 -260 227 c-143 125 -270 232 -283
237 -14 5 -381 9 -881 9 -742 0 -865 2 -916 16 -172 44 -308 198 -335 379 -7
46 -10 376 -8 965 l3 895 24 60 c66 166 196 278 354 304 29 5 630 9 1337 10
1116 1 1293 -1 1349 -14z"/>
<path d="M4632 3118 c-159 -480 -293 -883 -296 -895 -7 -23 -7 -23 116 -23
l123 0 61 183 60 182 335 3 334 2 61 -182 60 -183 126 -3 126 -3 -174 528
c-95 290 -229 692 -296 893 l-123 365 -112 3 -112 3 -289 -873z m658 -330 c0
-5 -117 -8 -260 -8 -143 0 -260 1 -260 3 0 4 249 750 256 767 5 12 264 -736
264 -762z"/>
</g>
</svg>
