<?xml version="1.0" standalone="no"?>
<!DOCTYPE svg PUBLIC "-//W3C//DTD SVG 20010904//EN"
 "http://www.w3.org/TR/2001/REC-SVG-20010904/DTD/svg10.dtd">
<svg version="1.0" xmlns="http://www.w3.org/2000/svg"
 width="1749.000000pt" height="2757.000000pt" viewBox="0 0 1749.000000 2757.000000"
 preserveAspectRatio="xMidYMid meet">

<g transform="translate(0.000000,2757.000000) scale(0.100000,-0.100000)"
fill="#000000" stroke="none">
<path d="M1070 27565 c-8 -2 -49 -9 -90 -15 -106 -17 -270 -72 -374 -125 -286
-146 -480 -373 -573 -670 l-28 -90 0 -8990 0 -8990 23 -85 c28 -101 83 -223
142 -311 23 -35 102 -122 174 -194 73 -71 1800 -1860 3837 -3975 2038 -2115
3728 -3862 3756 -3883 137 -100 374 -193 564 -221 214 -32 477 -16 674 40 118
33 313 129 397 196 37 29 1743 1792 3791 3918 2048 2126 3748 3887 3779 3914
131 113 244 282 304 457 l39 114 3 8970 c2 6875 0 8986 -9 9039 -16 96 -50
193 -103 292 -158 297 -455 507 -837 590 -118 26 -419 26 -537 1 -154 -34
-306 -93 -422 -163 -36 -22 -1587 -1209 -3448 -2637 -2108 -1619 -3387 -2595
-3395 -2590 -7 4 -1524 1168 -3372 2587 -1848 1419 -3397 2603 -3442 2632
-144 91 -332 158 -517 183 -69 10 -296 14 -336 6z m4012 -4407 l3417 -2623 1
-9413 c0 -5178 -4 -9412 -8 -9410 -4 2 -1595 1650 -3535 3663 l-3527 3660 0
8463 0 8463 118 -90 c64 -50 1655 -1271 3534 -2713z"/>
</g>
</svg>
