<?xml version="1.0" standalone="no"?>
<!DOCTYPE svg PUBLIC "-//W3C//DTD SVG 20010904//EN"
 "http://www.w3.org/TR/2001/REC-SVG-20010904/DTD/svg10.dtd">
<svg version="1.0" xmlns="http://www.w3.org/2000/svg"
 width="2048.000000pt" height="1607.000000pt" viewBox="0 0 2048.000000 1607.000000"
 preserveAspectRatio="xMidYMid meet">

<g transform="translate(0.000000,1607.000000) scale(0.100000,-0.100000)"
fill="#000000" stroke="none">
<path d="M553 16040 c-130 -34 -239 -98 -335 -196 -71 -73 -101 -116 -144
-210 -69 -149 -64 206 -64 -4244 0 -4383 -4 -4087 54 -4229 31 -78 117 -201
175 -253 78 -69 175 -126 273 -160 l93 -33 6063 -3 6063 -2 82 63 c272 210
581 401 899 556 87 42 158 78 157 81 0 3 -48 43 -106 90 -217 175 -474 453
-646 699 -454 648 -677 1390 -654 2178 11 378 62 677 175 1018 230 697 642
1277 1242 1748 295 231 707 447 1075 563 66 20 126 42 133 47 9 7 12 183 12
821 0 863 -2 901 -49 1022 -87 225 -291 401 -517 449 -60 13 -950 15 -6989 14
-6742 0 -6922 -1 -6992 -19z"/>
<path d="M15895 13000 c-304 -19 -620 -95 -913 -221 -552 -237 -1039 -685
-1320 -1216 -159 -299 -243 -555 -298 -903 -26 -164 -26 -605 -1 -770 61 -386
179 -716 366 -1024 416 -686 1096 -1149 1886 -1285 749 -129 1531 70 2144 547
122 95 329 299 428 422 425 528 632 1151 609 1825 -20 609 -237 1174 -634
1651 -423 509 -1035 853 -1687 949 -107 15 -370 36 -430 33 -16 0 -84 -4 -150
-8z"/>
<path d="M15748 6959 c-785 -35 -1568 -299 -2218 -747 -383 -264 -744 -611
-1012 -972 -422 -568 -691 -1203 -803 -1897 -49 -300 -48 -268 -52 -1845 l-4
-1488 138 0 c125 0 7843 0 8426 0 l248 0 -4 1533 c-4 1657 -1 1561 -58 1877
-157 876 -569 1664 -1194 2285 -449 447 -963 777 -1545 993 -586 217 -1162
296 -1922 261z"/>
<path d="M6045 6108 c-4 -16 -39 -171 -100 -453 -25 -115 -54 -248 -65 -295
-17 -75 -59 -269 -92 -427 l-11 -52 -646 -3 c-641 -3 -646 -3 -686 -25 -47
-25 -95 -74 -121 -123 -17 -32 -19 -66 -22 -360 -3 -279 -1 -330 13 -366 25
-67 67 -117 123 -147 l51 -28 3058 0 c2821 -1 3062 0 3098 15 52 22 112 80
136 131 17 36 19 70 19 376 l0 335 -26 52 c-14 29 -42 65 -62 82 -74 61 -65
60 -753 60 l-627 0 -5 23 c-6 22 -52 230 -153 692 -30 138 -68 310 -84 383
-17 74 -30 136 -30 138 0 2 -677 4 -1505 4 -1196 0 -1506 -3 -1510 -12z"/>
</g>
</svg>
