<?xml version="1.0" standalone="no"?>
<!DOCTYPE svg PUBLIC "-//W3C//DTD SVG 20010904//EN"
 "http://www.w3.org/TR/2001/REC-SVG-20010904/DTD/svg10.dtd">
<svg version="1.0" xmlns="http://www.w3.org/2000/svg"
 width="800.000000pt" height="800.000000pt" viewBox="0 0 800.000000 800.000000"
 preserveAspectRatio="xMidYMid meet">

<g transform="translate(0.000000,800.000000) scale(0.100000,-0.100000)"
fill="#000000" stroke="none">
<path d="M3850 7553 c-72 -11 -222 -48 -279 -70 -415 -156 -722 -529 -796
-966 -14 -80 -15 -243 -13 -1297 l4 -1205 22 -85 c47 -176 89 -272 180 -410
167 -252 438 -445 732 -520 662 -168 1337 230 1515 893 44 164 47 241 42 1447
-3 993 -6 1144 -19 1205 -62 272 -182 490 -367 668 -183 176 -414 292 -664
332 -83 13 -292 18 -357 8z m411 -246 c353 -92 632 -363 733 -711 41 -140 46
-261 46 -1093 l0 -783 -1030 0 -1031 0 4 878 c3 861 3 878 24 958 107 399 420
692 825 769 111 21 309 13 429 -18z m779 -2939 c0 -301 -33 -465 -131 -646
-193 -360 -594 -573 -1002 -531 -347 35 -641 232 -806 540 -92 172 -121 309
-121 580 l0 189 1030 0 1030 0 0 -132z"/>
<path d="M2171 5316 c-51 -28 -50 -19 -51 -657 0 -701 5 -764 86 -1041 163
-558 571 -1007 1094 -1201 159 -59 386 -108 555 -119 l40 -3 0 -505 0 -505
-500 -2 c-371 -2 -506 -6 -523 -15 -50 -26 -52 -41 -52 -421 0 -342 1 -355 21
-380 11 -15 37 -31 57 -37 26 -8 376 -10 1134 -8 l1098 3 32 33 33 32 3 347
c3 370 1 386 -46 423 -24 19 -43 20 -528 20 l-504 0 0 504 0 505 43 5 c349 38
526 85 750 197 556 279 922 867 977 1573 5 71 10 365 10 653 0 564 0 561 -52
597 -47 33 -133 11 -156 -39 -9 -19 -12 -161 -12 -528 -1 -523 -8 -699 -35
-858 -44 -259 -154 -531 -298 -736 -85 -121 -260 -294 -376 -371 -335 -224
-770 -311 -1234 -246 -746 104 -1273 655 -1383 1449 -10 75 -13 242 -14 678 0
623 1 614 -52 651 -27 19 -84 20 -117 2z m2807 -4463 l-3 -208 -967 -3 -968
-2 0 210 0 210 970 0 970 0 -2 -207z"/>
</g>
</svg>
