<?xml version="1.0" standalone="no"?>
<!DOCTYPE svg PUBLIC "-//W3C//DTD SVG 20010904//EN"
 "http://www.w3.org/TR/2001/REC-SVG-20010904/DTD/svg10.dtd">
<svg version="1.0" xmlns="http://www.w3.org/2000/svg"
 width="2757.000000pt" height="2553.000000pt" viewBox="0 0 2757.000000 2553.000000"
 preserveAspectRatio="xMidYMid meet">

<g transform="translate(0.000000,2553.000000) scale(0.100000,-0.100000)"
fill="#000000" stroke="none">
<path d="M13592 25510 c-186 -49 -315 -174 -367 -354 -13 -46 -16 -82 -12
-155 5 -96 9 -105 796 -2400 436 -1268 803 -2331 818 -2363 50 -112 77 -101
69 27 -3 44 -154 1158 -336 2475 -228 1653 -337 2414 -351 2458 -84 252 -343
384 -617 312z"/>
<path d="M17793 25261 c-124 -36 -244 -134 -299 -242 -30 -60 -1776 -4535
-1798 -4609 -33 -110 -12 -129 55 -50 20 25 628 976 1350 2115 1441 2271 1359
2133 1359 2294 0 211 -130 389 -345 472 -103 41 -228 48 -322 20z"/>
<path d="M13261 20910 c-316 -67 -545 -278 -637 -587 -36 -121 -38 -289 -5
-412 75 -281 280 -495 561 -583 65 -20 95 -23 230 -23 150 0 158 1 253 34 222
77 408 250 493 459 46 114 58 180 58 312 0 100 -4 141 -22 205 -48 168 -142
315 -271 421 -73 61 -213 134 -306 159 -71 19 -289 28 -354 15z m244 -425
c146 -39 257 -160 285 -312 30 -168 -65 -345 -227 -421 -51 -24 -70 -27 -158
-27 -87 0 -107 4 -157 27 -80 37 -152 107 -191 187 -30 61 -32 72 -32 171 0
92 3 112 26 160 83 174 270 263 454 215z"/>
<path d="M17005 20219 c-175 -23 -363 -102 -502 -213 -504 -401 -495 -1178 19
-1566 395 -299 943 -266 1295 77 295 289 383 726 222 1103 -140 328 -446 555
-809 600 -95 11 -126 11 -225 -1z m260 -434 c194 -49 353 -204 411 -400 26
-88 24 -230 -4 -320 -74 -237 -272 -390 -517 -403 -176 -8 -308 42 -431 163
-230 227 -230 583 0 810 77 75 168 129 258 151 74 17 212 17 283 -1z"/>
<path d="M6580 19569 c-438 -21 -862 -175 -1220 -442 -180 -135 -397 -374
-506 -560 -36 -59 -43 -66 -111 -97 -414 -186 -789 -556 -989 -975 -444 -933
-98 -2066 816 -2674 63 -42 117 -80 119 -86 5 -17 -112 -335 -125 -335 -6 0
-366 129 -800 286 -434 157 -823 295 -864 307 -62 17 -104 20 -240 20 -147 1
-176 -2 -263 -26 -298 -80 -546 -277 -677 -537 -39 -78 -1656 -4529 -1693
-4660 -17 -62 -21 -104 -21 -245 -1 -155 2 -179 27 -268 81 -294 269 -532 528
-667 41 -21 437 -170 880 -330 442 -161 805 -293 807 -294 1 -2 -212 -594
-474 -1317 -261 -723 -482 -1339 -491 -1369 -39 -144 -25 -353 33 -509 76
-202 264 -399 452 -476 98 -40 6852 -2486 6927 -2509 96 -29 337 -30 435 -2
245 70 458 247 555 459 13 29 715 1960 1560 4291 844 2332 1537 4241 1539
4243 2 2 55 -30 117 -72 373 -249 841 -383 1304 -373 l150 3 76 -55 76 -55
1543 -4857 c1097 -3452 1554 -4876 1579 -4925 143 -272 406 -440 716 -459 59
-4 118 0 172 9 72 13 6861 2163 7066 2237 299 109 510 384 547 712 10 90 8
144 -12 248 -6 30 -201 655 -434 1389 -233 734 -421 1338 -417 1341 5 4 339
112 743 240 404 128 776 246 825 262 357 118 604 381 707 756 30 105 32 382 5
482 -54 199 -1475 4647 -1503 4705 -52 110 -111 193 -204 286 -99 99 -176 154
-304 215 -206 97 -426 124 -649 79 -38 -8 -433 -130 -878 -271 -445 -142 -811
-255 -813 -253 -3 3 -29 81 -59 174 l-54 170 108 64 c777 460 1210 1324 1084
2163 -93 624 -476 1166 -1040 1477 -60 33 -113 64 -118 68 -4 4 -35 55 -70
113 -324 548 -896 913 -1582 1012 -55 8 -178 13 -315 12 -195 -1 -244 -4 -370
-27 -80 -14 -197 -41 -261 -59 l-116 -34 -42 18 c-137 58 -349 115 -534 145
-174 27 -528 24 -706 -6 -393 -67 -746 -216 -1052 -442 -44 -33 -100 -78 -124
-100 l-44 -40 -138 34 c-215 54 -368 70 -617 64 -155 -3 -244 -11 -335 -27
-521 -92 -959 -323 -1318 -694 -112 -115 -232 -266 -294 -370 l-32 -54 -76 -7
c-42 -4 -127 -15 -189 -26 -63 -10 -116 -19 -118 -19 -2 0 -13 33 -25 73 -177
585 -621 1098 -1194 1378 -225 110 -546 206 -753 225 l-68 7 -29 51 c-197 353
-527 678 -900 885 -501 278 -1113 370 -1654 247 l-105 -24 -79 70 c-359 317
-780 511 -1267 585 -159 24 -482 23 -640 -1 -151 -23 -261 -49 -396 -92 l-112
-36 -108 35 c-289 95 -557 131 -874 116z m269 -679 c219 -20 423 -76 613 -170
l104 -52 110 55 c248 124 488 175 779 164 258 -10 459 -63 700 -182 267 -133
491 -330 645 -569 24 -37 46 -65 49 -64 3 2 47 24 97 50 623 320 1434 172
1939 -353 186 -194 325 -437 385 -677 l11 -43 52 8 c99 15 354 6 481 -16 533
-95 1002 -446 1220 -913 65 -138 122 -328 98 -328 -5 0 -70 -40 -143 -89 -134
-89 -313 -235 -400 -327 -291 -308 -493 -684 -574 -1067 -19 -91 -28 -115 -47
-127 -141 -92 -379 -311 -495 -455 -323 -400 -504 -931 -480 -1404 l6 -114
-122 6 c-386 19 -772 192 -1077 482 l-65 62 -105 -9 c-124 -12 -326 2 -468 32
-318 67 -625 233 -857 463 -58 58 -60 59 -90 47 -130 -53 -217 -82 -320 -106
-114 -27 -132 -29 -350 -28 -200 0 -243 3 -332 22 -281 61 -541 185 -756 360
-198 160 -374 402 -467 640 -22 55 -38 82 -49 82 -46 1 -237 31 -308 49 -327
84 -599 242 -827 482 -83 87 -236 295 -236 320 0 4 -15 10 -32 14 -223 44
-481 163 -677 310 -294 222 -508 544 -588 885 -30 131 -42 356 -24 481 28 200
108 407 221 575 69 101 202 239 309 320 108 81 290 175 423 218 79 26 106 39
115 57 6 13 32 67 57 119 207 438 665 743 1183 789 129 12 166 12 292 1z
m12976 -1840 c55 -11 141 -35 190 -52 82 -28 262 -113 327 -154 26 -17 29 -17
147 34 250 107 402 137 686 136 179 0 225 -3 315 -23 315 -67 555 -194 766
-405 151 -151 257 -315 320 -495 l23 -64 88 -32 c468 -168 805 -543 904 -1005
30 -137 32 -389 6 -523 -121 -607 -623 -1098 -1263 -1237 -54 -11 -102 -24
-105 -28 -3 -4 -29 -41 -57 -82 -274 -402 -764 -676 -1266 -707 l-101 -6 -38
-88 c-107 -246 -295 -474 -534 -646 -107 -77 -334 -191 -462 -233 -187 -60
-293 -75 -531 -75 -186 0 -229 3 -322 23 -126 27 -243 65 -355 117 l-82 37
-74 -67 c-218 -198 -498 -341 -787 -403 -194 -42 -424 -51 -601 -23 l-54 9
-60 -57 c-417 -398 -1095 -551 -1645 -371 -223 73 -415 187 -581 347 l-106
103 -99 -21 c-146 -29 -397 -36 -544 -15 -194 28 -332 71 -504 158 -385 193
-650 539 -733 956 -26 130 -23 375 5 509 60 278 193 529 391 736 148 154 311
272 499 361 l62 30 0 116 c0 695 557 1329 1300 1480 188 38 454 44 616 14 l31
-6 28 84 c173 527 648 932 1242 1060 95 20 135 23 333 23 194 0 239 -3 326
-23 180 -39 362 -110 497 -193 27 -17 53 -27 57 -22 3 4 28 38 53 75 62 88
191 223 286 300 236 190 514 312 826 363 134 21 448 14 580 -15z m-17063
-2541 c29 -6 510 -177 1068 -380 558 -202 1021 -369 1029 -371 9 -2 54 108
151 375 76 208 140 380 142 382 3 3 19 -15 37 -40 53 -73 236 -259 336 -340
l94 -77 -38 -106 c-48 -133 -3179 -8774 -3186 -8794 -4 -11 702 -271 3165
-1163 1743 -631 3172 -1146 3174 -1144 2 2 710 1957 1575 4343 864 2387 1573
4341 1574 4342 2 2 70 4 152 5 l148 1 55 -98 c30 -55 77 -132 105 -173 l51
-73 -18 -52 c-127 -358 -3140 -8664 -3150 -8684 -28 -53 -86 -109 -148 -143
-59 -32 -69 -34 -158 -34 l-95 0 -3430 1243 c-2694 977 -3442 1252 -3484 1280
-65 44 -123 128 -141 203 -27 110 -38 73 559 1723 309 852 560 1550 559 1551
-2 2 -463 170 -1026 374 -563 204 -1050 385 -1083 402 -35 19 -85 59 -122 98
-115 123 -163 252 -154 416 5 90 11 105 822 2345 449 1240 831 2282 848 2315
65 122 213 235 353 269 73 18 166 20 236 5z m4366 -1714 c132 -31 241 -107
314 -219 104 -161 106 -384 3 -546 -64 -101 -192 -193 -305 -219 -25 -6 -82
-11 -126 -11 -196 0 -361 104 -449 284 -92 185 -59 404 81 556 131 141 304
197 482 155z m15616 -593 c65 -207 122 -381 126 -385 4 -5 477 141 1050 323
613 196 1069 336 1106 340 63 8 170 -1 229 -18 121 -36 274 -163 328 -272 25
-52 1425 -4439 1468 -4599 66 -255 -52 -523 -282 -634 -43 -21 -508 -174
-1104 -363 -566 -179 -1031 -327 -1032 -328 -1 -1 222 -710 497 -1575 484
-1521 500 -1575 499 -1649 0 -86 -16 -135 -66 -206 -69 -97 158 -21 -3623
-1223 -3385 -1076 -3487 -1108 -3560 -1107 -59 1 -88 6 -132 26 -68 32 -142
98 -171 153 -20 38 -2957 9267 -2952 9273 2 2 54 -8 117 -22 148 -33 327 -56
438 -56 75 0 91 -3 98 -17 5 -10 636 -1992 1403 -4405 766 -2414 1398 -4388
1404 -4388 26 -1 6415 2035 6415 2045 0 5 -644 2036 -1431 4513 -787 2477
-1429 4507 -1427 4511 2 5 46 42 98 81 52 40 158 137 235 215 77 79 142 143
145 144 3 0 58 -169 124 -377z m-12850 -1047 c286 -75 470 -359 413 -640 -55
-269 -273 -455 -537 -457 -109 -1 -176 14 -272 64 -139 72 -256 225 -287 376
-60 289 119 578 405 657 67 18 208 18 278 0z m10867 -215 c90 -17 209 -82 270
-148 97 -104 139 -212 139 -352 0 -134 -46 -246 -142 -346 -195 -204 -516
-207 -716 -8 -116 116 -170 280 -144 437 47 281 314 469 593 417z m-14349
-417 c85 -40 151 -105 191 -191 30 -62 32 -75 32 -172 0 -95 -3 -111 -28 -162
-126 -257 -460 -312 -651 -108 -199 213 -118 549 157 651 82 31 212 23 299
-18z m11599 -1119 c98 -29 184 -82 253 -155 212 -224 209 -559 -8 -774 -116
-115 -236 -165 -396 -165 -139 0 -244 38 -354 127 -110 88 -178 215 -198 368
-35 259 148 531 403 599 74 20 232 20 300 0z m-9873 -149 c80 -40 124 -85 161
-165 35 -75 37 -210 4 -282 -32 -70 -103 -141 -176 -174 -126 -59 -289 -29
-385 69 -22 23 -53 67 -69 97 -25 48 -28 66 -28 145 0 76 4 99 26 145 37 80
81 125 161 165 64 32 79 35 153 35 74 0 89 -3 153 -35z m13393 -622 c80 -39
150 -111 187 -191 24 -51 27 -69 27 -167 0 -99 -3 -116 -27 -168 -35 -73 -116
-155 -193 -193 -55 -27 -69 -29 -170 -29 -101 0 -115 2 -170 29 -77 38 -153
114 -191 191 -27 55 -29 69 -29 170 0 99 3 115 27 165 51 104 130 176 231 212
39 14 75 18 147 16 85 -3 103 -7 161 -35z m-1814 -1194 c204 -99 259 -369 108
-536 -168 -187 -467 -143 -573 85 -36 77 -38 202 -4 275 84 187 289 264 469
176z m-12877 -390 c60 -27 98 -64 126 -124 80 -170 -43 -365 -231 -365 -142 0
-255 113 -255 254 1 106 51 188 145 232 65 31 151 32 215 3z m13966 -1854
c136 -40 214 -189 170 -322 -51 -153 -225 -224 -365 -148 -89 49 -134 125
-134 225 0 118 73 216 184 249 50 14 89 13 145 -4z"/>
<path d="M2823 13709 c-161 -27 -302 -136 -377 -292 -29 -60 -1153 -3148
-1192 -3274 -73 -239 -4 -454 197 -609 64 -49 192 -120 279 -154 196 -78 1375
-499 1378 -493 2 4 351 967 776 2138 496 1367 769 2132 762 2136 -22 13 -1323
483 -1401 506 -158 47 -305 62 -422 42z m767 -694 c223 -81 410 -150 416 -154
6 -4 -215 -626 -592 -1666 -332 -913 -604 -1663 -606 -1668 -5 -12 -826 290
-886 326 -59 35 -104 85 -127 141 -36 85 -51 38 511 1589 345 954 535 1466
553 1492 17 23 51 52 82 68 51 27 60 29 149 24 93 -4 104 -8 500 -152z"/>
<path d="M24658 11689 c-42 -5 -116 -20 -165 -32 -186 -49 -1433 -452 -1430
-462 2 -5 311 -977 687 -2160 375 -1182 686 -2154 690 -2158 6 -7 1227 374
1403 438 281 102 463 266 506 456 13 57 13 191 0 249 -5 25 -242 776 -525
1670 -327 1028 -531 1656 -556 1708 -106 223 -322 326 -610 291z m115 -567
c34 -19 62 -45 80 -75 19 -30 179 -519 493 -1506 502 -1581 487 -1525 445
-1617 -25 -56 -83 -109 -155 -144 -67 -32 -863 -287 -871 -278 -12 12 -1074
3373 -1067 3379 8 7 782 252 847 268 70 18 170 6 228 -27z"/>
<path d="M14775 18646 c-279 -55 -495 -255 -567 -525 -26 -97 -28 -249 -4
-346 37 -156 135 -305 263 -402 130 -98 269 -145 433 -145 327 0 602 210 692
529 27 98 29 257 5 353 -37 144 -136 299 -245 385 -69 56 -196 119 -277 140
-87 22 -218 27 -300 11z m241 -435 c103 -47 165 -135 172 -246 11 -177 -100
-304 -275 -313 -60 -3 -80 0 -125 20 -76 35 -112 70 -147 140 -78 155 -4 347
156 404 56 20 170 17 219 -5z"/>
</g>
</svg>
