<?xml version="1.0" standalone="no"?>
<!DOCTYPE svg PUBLIC "-//W3C//DTD SVG 20010904//EN"
 "http://www.w3.org/TR/2001/REC-SVG-20010904/DTD/svg10.dtd">
<svg version="1.0" xmlns="http://www.w3.org/2000/svg"
 width="800.000000pt" height="586.000000pt" viewBox="0 0 800.000000 586.000000"
 preserveAspectRatio="xMidYMid meet">

<g transform="translate(0.000000,586.000000) scale(0.100000,-0.100000)"
fill="#000000" stroke="none">
<path d="M672 5779 c-110 -19 -213 -97 -261 -199 l-26 -55 0 -2285 0 -2285 24
-45 c36 -69 76 -115 129 -148 100 -65 20 -62 1609 -62 l1443 0 0 -215 0 -215
-872 0 c-547 0 -886 -4 -909 -10 -54 -15 -84 -53 -84 -105 0 -49 22 -80 72
-101 49 -21 4308 -21 4357 0 45 19 66 52 66 102 0 52 -28 90 -78 104 -24 6
-342 10 -909 10 l-873 0 0 215 0 215 1468 2 1467 3 58 27 c72 34 112 67 154
126 68 94 63 -86 61 2404 l-3 2253 -29 63 c-36 78 -113 151 -194 184 l-57 23
-3280 1 c-1859 1 -3303 -2 -3333 -7z m6614 -238 c17 -10 38 -34 47 -54 16 -32
17 -201 17 -2244 0 -2082 -1 -2210 -18 -2242 -9 -19 -30 -44 -45 -55 l-28 -21
-3237 -3 c-1780 -2 -3261 0 -3291 3 -41 5 -61 14 -90 40 l-36 33 -3 2232 c-2
2467 -8 2269 61 2310 32 20 76 20 3312 20 3191 0 3281 -1 3311 -19z m-3146
-5056 l0 -215 -165 0 -165 0 0 215 0 215 165 0 165 0 0 -215z"/>
</g>
</svg>
